<svg xmlns="http://www.w3.org/2000/svg" viewBox="0 0 28 23" width="28" height="23">
	<style>
		tspan { white-space:pre }
		.shp0 { fill: #ffffff } 
	</style>
	<g id="Services">
		<g id="Fast and reliable">
			<path id="Dashboard" class="shp0" d="M17.7 9.65C17.7 9.65 16.72 15.36 15.68 16.59C14.63 17.83 12.78 17.98 11.55 16.93C10.32 15.87 10.18 14.01 11.22 12.78C12.27 11.54 17.7 9.65 17.7 9.65ZM23.9 22.16L3.8 22.16C3.49 22.16 3.2 22.02 3.01 21.77C1.31 19.55 0.34 16.56 0.34 13.59C0.34 6.04 6.4 -0.1 13.85 -0.1C21.31 -0.1 27.37 6.03 27.37 13.56C27.37 16.56 26.39 19.55 24.69 21.77C24.5 22.02 24.21 22.16 23.9 22.16ZM4.31 20.15L23.39 20.15C24.65 18.32 25.37 15.95 25.37 13.56C25.37 7.14 20.2 1.91 13.85 1.91C7.5 1.91 2.34 7.15 2.34 13.59C2.34 15.96 3.05 18.32 4.31 20.15ZM5.92 13.8C5.36 13.8 4.91 13.35 4.91 12.79C4.91 7.78 8.92 3.71 13.85 3.71C18.78 3.71 22.79 7.77 22.79 12.76C22.79 13.32 22.34 13.77 21.79 13.77C21.24 13.77 20.79 13.32 20.79 12.76C20.79 8.88 17.68 5.72 13.85 5.72C10.03 5.72 6.92 8.9 6.92 12.79C6.92 13.35 6.47 13.8 5.92 13.8Z" />
		</g>
	</g>
</svg>