<svg xmlns="http://www.w3.org/2000/svg" viewBox="0 0 25 26" width="25" height="26">
	<style>
		tspan { white-space:pre }
		.shp0 { fill: #1275b9 } 
	</style>
	<g id="Services">
		<g id="Easy Customize">
			<path id="Settings" class="shp0" d="M12.59 19.3C9.28 19.3 6.58 16.59 6.58 13.27C6.58 9.95 9.28 7.25 12.59 7.25C15.91 7.25 18.6 9.95 18.6 13.27C18.6 16.59 15.91 19.3 12.59 19.3ZM12.59 9.26C10.38 9.26 8.58 11.06 8.58 13.27C8.58 15.49 10.38 17.29 12.59 17.29C14.8 17.29 16.6 15.49 16.6 13.27C16.6 11.06 14.8 9.26 12.59 9.26ZM9.92 25.29C9.85 25.29 9.77 25.28 9.7 25.26C7.88 24.85 6.14 24.02 4.67 22.85C4.47 22.68 4.33 22.44 4.3 22.17C4.27 21.91 4.35 21.65 4.51 21.44L4.91 20.94C4.21 20.28 3.6 19.51 3.1 18.68L2.53 18.96C2.04 19.2 1.44 18.99 1.19 18.49C0.37 16.79 -0.05 14.96 -0.06 13.05C-0.06 12.79 0.05 12.53 0.24 12.34C0.42 12.15 0.68 12.05 0.94 12.05L1.57 12.05C1.65 11.08 1.87 10.13 2.21 9.22L1.64 8.95C1.4 8.83 1.22 8.63 1.13 8.37C1.04 8.12 1.06 7.85 1.17 7.61C1.98 5.92 3.18 4.41 4.63 3.24C5.07 2.9 5.7 2.96 6.04 3.4L6.44 3.89C7.24 3.35 8.12 2.93 9.04 2.62L8.9 2.01C8.84 1.75 8.88 1.47 9.02 1.25C9.17 1.02 9.39 0.86 9.65 0.8C11.46 0.39 13.4 0.38 15.22 0.79C15.76 0.91 16.1 1.44 15.97 1.98L15.84 2.6C16.76 2.9 17.64 3.32 18.45 3.85L18.84 3.36C19 3.15 19.25 3.01 19.51 2.98C19.77 2.95 20.04 3.03 20.25 3.19C21.71 4.36 22.92 5.86 23.74 7.54C23.85 7.78 23.87 8.05 23.78 8.31C23.7 8.56 23.51 8.76 23.28 8.88L22.71 9.16C23.05 10.08 23.28 11.02 23.37 11.99L23.98 11.98C24.23 11.97 24.51 12.09 24.7 12.27C24.89 12.46 25 12.72 25 12.99C25 14.93 24.58 16.77 23.76 18.47C23.64 18.71 23.44 18.9 23.19 18.98C22.93 19.07 22.66 19.06 22.42 18.94L21.85 18.66C21.35 19.49 20.74 20.26 20.05 20.93L20.44 21.42C20.79 21.85 20.72 22.49 20.29 22.83C18.82 24 17.09 24.84 15.27 25.26C14.72 25.39 14.19 25.04 14.07 24.5L13.93 23.89C12.95 24.03 12.01 24.03 11.04 23.89L10.9 24.51C10.84 24.77 10.68 24.99 10.46 25.13C10.29 25.24 10.11 25.29 9.92 25.29ZM6.74 21.86C7.49 22.36 8.32 22.75 9.17 23.04L9.29 22.52C9.35 22.26 9.51 22.03 9.73 21.89C9.96 21.75 10.23 21.7 10.49 21.76C11.83 22.06 13.12 22.06 14.47 21.75C14.72 21.69 15 21.74 15.22 21.88C15.45 22.02 15.61 22.25 15.67 22.51L15.79 23.03C16.64 22.75 17.46 22.35 18.22 21.85L17.89 21.43C17.54 21 17.61 20.37 18.05 20.02C19.08 19.19 19.94 18.12 20.52 16.91C20.76 16.41 21.36 16.2 21.86 16.44L22.35 16.68C22.66 15.81 22.87 14.92 22.95 14L22.43 14.01C22.16 13.98 21.9 13.91 21.71 13.72C21.52 13.53 21.41 13.28 21.41 13.01C21.41 11.66 21.1 10.35 20.5 9.12C20.26 8.62 20.47 8.02 20.97 7.77L21.45 7.54C20.98 6.77 20.41 6.06 19.76 5.43L19.42 5.85C19.08 6.28 18.45 6.36 18.02 6.01C16.96 5.17 15.75 4.59 14.43 4.29C13.89 4.17 13.55 3.64 13.67 3.1L13.79 2.57C12.9 2.46 11.98 2.47 11.09 2.58L11.21 3.11C11.27 3.36 11.22 3.64 11.08 3.86C10.94 4.09 10.71 4.25 10.46 4.31C9.15 4.61 7.92 5.21 6.88 6.04C6.45 6.39 5.82 6.32 5.47 5.89L5.14 5.47C4.49 6.1 3.92 6.82 3.46 7.59L3.94 7.83C4.44 8.07 4.65 8.67 4.41 9.17C3.82 10.39 3.53 11.69 3.53 13.03C3.53 13.58 3.08 14.05 2.53 14.05L2 14.05C2.08 14.96 2.29 15.84 2.6 16.69L3.09 16.46C3.33 16.34 3.6 16.33 3.85 16.41C4.1 16.5 4.31 16.68 4.43 16.92C5.01 18.13 5.87 19.21 6.91 20.04C7.12 20.2 7.25 20.44 7.28 20.71C7.31 20.97 7.23 21.24 7.07 21.45L6.74 21.86Z" />
		</g>
	</g>
</svg>