<svg xmlns="http://www.w3.org/2000/svg" viewBox="0 0 22 30" width="22" height="30">
	<style>
		tspan { white-space:pre }
		.shp0 { fill: #1275b9 } 
	</style>
	<g id="Services">
		<g id="Responsive Design">
			<path id="Tablet" class="shp0" d="M17.27 29.98L4.74 29.98C2.1 29.98 -0.04 27.75 -0.04 25.02L-0.04 4.94C-0.04 2.21 2.1 -0.01 4.74 -0.01L17.27 -0.01C19.9 -0.01 22.04 2.21 22.04 4.94L22.04 25.02C22.04 27.75 19.9 29.98 17.27 29.98ZM4.74 2C3.17 2 1.9 3.32 1.9 4.94L1.9 25.02C1.9 26.64 3.17 27.97 4.74 27.97L17.27 27.97C18.83 27.97 20.1 26.64 20.1 25.02L20.1 4.94C20.1 3.32 18.83 2 17.27 2L4.74 2ZM11 26.82C10.47 26.82 10.03 26.37 10.03 25.81C10.03 25.26 10.47 24.81 11 24.81C11.53 24.81 11.97 25.26 11.97 25.81C11.97 26.37 11.53 26.82 11 26.82ZM11.97 5.43L10.03 5.43C9.5 5.43 9.07 4.98 9.07 4.43C9.07 3.87 9.5 3.42 10.03 3.42L11.97 3.42C12.5 3.42 12.94 3.87 12.94 4.43C12.94 4.98 12.5 5.43 11.97 5.43Z" />
		</g>
	</g>
</svg>